<?xml version="1.0" encoding="UTF-8" standalone="no"?>
<!-- Generator: Adobe Illustrator 19.0.0, SVG Export Plug-In . SVG Version: 6.00 Build 0)  -->

<svg
   version="1.1"
   id="Capa_1"
   x="0px"
   y="0px"
   viewBox="0 0 49 49"
   style="enable-background:new 0 0 49 49;"
   xml:space="preserve"
   width="512px"
   height="512px"
   sodipodi:docname="save_as_white.svg"
   inkscape:version="1.2 (1:1.2.1+202207142221+cd75a1ee6d)"
   xmlns:inkscape="http://www.inkscape.org/namespaces/inkscape"
   xmlns:sodipodi="http://sodipodi.sourceforge.net/DTD/sodipodi-0.dtd"
   xmlns="http://www.w3.org/2000/svg"
   xmlns:svg="http://www.w3.org/2000/svg"><defs
   id="defs116"><clipPath
     clipPathUnits="userSpaceOnUse"
     id="clipPath12832"><path
       id="path12834"
       style="fill:#ff0000;fill-opacity:1;fill-rule:nonzero;stroke:none;stroke-width:0.0709573"
       d="M 41.003236,41.27813 V 54.500065 H 59.999957 V 41.27813 Z m 1.851998,2.141245 c 0.0052,-1.34e-4 0.01035,-1.41e-4 0.01549,0 0.21163,0.0058 0.396215,0.245308 0.299921,0.647231 -0.04073,0.169993 -0.07658,0.341111 -0.112069,0.512226 -0.04407,0.221204 -0.09986,0.439879 -0.148216,0.660168 -0.01675,0.07635 -0.03655,0.151895 -0.05876,0.226799 0.0099,0.163464 0.01203,0.327549 -0.0015,0.490894 -0.01849,0.159644 -0.05086,0.316747 -0.08136,0.474517 -0.01134,0.05978 -0.03074,0.189593 -0.06601,0.235469 -0.02039,0.02652 -0.03883,0.05833 -0.05918,0.08753 8.51e-4,0.0028 0.0017,0.0055 0.0024,0.0084 0.0095,0.04102 0.01454,0.0831 0.01731,0.125098 0.0016,0.02371 -0.0028,0.04745 -0.0045,0.07115 -0.0047,0.06523 -0.01197,0.130423 -0.01787,0.195559 -0.01275,0.140818 -0.0199,0.281924 -0.02498,0.423185 -0.0035,0.104739 -0.0053,0.209542 -0.0066,0.314326 -5.72e-4,0.05036 -8.79e-4,0.100748 -0.0011,0.151108 -0.0035,0.06921 -0.0088,0.138283 -0.01675,0.207119 0.02548,0.0073 0.05089,0.01893 0.07592,0.03592 0.238855,0.162084 0.258276,0.304584 0.191899,0.494747 -0.0085,0.02447 -0.02407,0.04598 -0.03615,0.06895 -0.02647,0.04093 -0.05648,0.07942 -0.08723,0.117253 -0.0026,0.0066 -0.005,0.0132 -0.0082,0.0194 -0.0059,0.01793 -0.01209,0.03578 -0.02038,0.05285 -9.86e-4,0.0021 -0.0014,0.0047 -0.0022,0.0069 -4.29e-4,0.0035 -0.001,0.0066 -0.0035,0.0058 -1.43e-4,-3.8e-5 -2.15e-4,-7.1e-5 -2.86e-4,-1.41e-4 -0.0099,0.03026 -9.93e-4,0.0059 -0.01968,0.05436 -0.01272,0.02863 -0.02763,0.06051 -0.0395,0.08491 -0.01401,0.03686 -0.02665,0.07416 -0.03322,0.113124 -0.01835,0.0833 -0.03122,0.167767 -0.04522,0.251847 -0.0052,0.03545 -0.01111,0.07078 -0.01521,0.106381 -5e-4,0.0044 0.0033,0.01325 -0.0013,0.01335 -2.86e-4,6e-6 -5.71e-4,-6e-6 -8.36e-4,0 -0.0012,0.01418 -0.0011,0.01153 -4.29e-4,0 -0.759932,0.01621 -0.749634,0.24912 -0.751127,-0.0245 2.86e-4,-0.005 -1.43e-4,-0.01024 -5.72e-4,-0.01541 -0.0061,-0.0023 -0.002,-0.01322 0.0015,-0.02353 -7.2e-5,-0.01625 5.8e-5,-0.03248 8.36e-4,-0.04872 0.0028,-0.04221 0.0087,-0.08377 0.0052,-0.126198 -0.0012,-0.08694 -0.0029,-0.173853 -0.0039,-0.260791 1.43e-4,-0.08104 0.0059,-0.161595 0.0091,-0.242489 0.0012,-0.0622 0.0042,-0.124619 1.43e-4,-0.186752 -0.0017,-0.08555 0.0018,-0.171116 0.0068,-0.256525 0.0069,-0.104236 0.01512,-0.208368 0.02875,-0.311987 0.0065,-0.04714 0.007,-0.0946 0.0127,-0.14175 7.1e-5,-8.8e-4 3.57e-4,0.0015 5.71e-4,0.0023 2.86e-4,-0.05219 6.44e-4,-0.10429 0.0013,-0.156476 0.0013,-0.110619 0.0032,-0.221235 0.007,-0.331804 0.0056,-0.154418 0.01353,-0.30875 0.0275,-0.462682 0.0023,-0.0258 0.0047,-0.05167 0.007,-0.07748 0.0015,-0.01524 0.003,-0.03045 0.0045,-0.04569 -0.0088,-0.01327 -0.01742,-0.02667 -0.02582,-0.04019 -0.03842,-0.06478 -0.07429,-0.131067 -0.105788,-0.199413 -0.03117,-0.07962 -0.05561,-0.161732 -0.06336,-0.247167 -0.01325,-0.1 -0.02299,-0.200362 -0.03001,-0.300976 -0.0071,-0.109892 -0.0065,-0.219799 -0.0049,-0.329879 8.94e-4,-0.09246 0.0021,-0.184926 0.0066,-0.277305 0.0044,-0.0891 0.01011,-0.178127 0.01814,-0.266986 0.0055,-0.10064 0.01322,-0.201171 0.02554,-0.301251 0.01148,-0.10007 0.01996,-0.200655 0.0388,-0.29974 0.02435,-0.107439 0.05751,-0.21281 0.116954,-0.307031 0.0715,-0.113679 0.178829,-0.233269 0.32225,-0.254325 0.05937,-0.0087 0.11993,0.0011 0.180036,0.0045 0.02055,-0.09425 0.04205,-0.188237 0.06546,-0.281848 h 1.43e-4 c 0.07553,-0.30213 0.247744,-0.440119 0.408082,-0.444378 z m -0.309271,6.256387 c 1.43e-4,-3e-6 2.86e-4,3e-6 4.29e-4,0 2.14e-4,-0.0021 3e-5,-3.52e-4 2.86e-4,-0.0033 7.1e-5,-0.0066 2.14e-4,-0.01141 2.86e-4,-0.01734 -4.29e-4,0.0089 -6.43e-4,0.01452 -9.79e-4,0.02064 z m 5.219925,-5.385521 c 0.13018,-4.23e-4 0.260217,0.0053 0.390078,0.01748 0.172984,0.01472 0.34596,0.03149 0.517638,0.05739 0.620544,0.09362 0.633482,0.627678 0.181013,0.727327 -0.07705,0.08651 -0.20435,0.159398 -0.386728,0.19611 -0.02867,0.0058 -0.05745,0.01146 -0.08611,0.0172 -0.193307,0.0412 -0.384987,0.09087 -0.580721,0.120005 -0.07644,0.0092 -0.115679,0.01497 -0.193155,0.01968 -0.126618,0.0077 -0.253218,4.93e-4 -0.37989,-0.0015 -0.298596,-0.0085 -0.597258,-0.0191 -0.894876,-0.04555 -0.288804,-0.02898 -0.581056,-0.06036 -0.85845,-0.148907 v 1.41e-4 c -0.528396,-0.168672 -0.531656,-0.597938 -0.20418,-0.715078 -0.05544,-0.06135 -0.03375,-0.123409 0.148215,-0.185927 0.01613,-0.0055 0.0323,-0.01111 0.04843,-0.01665 0.06319,-0.01637 0.127276,-0.03144 0.192876,-0.03372 0.06878,-0.001 0.137405,0.002 0.205716,0.0106 0.08286,0.01076 0.165133,0.02499 0.246886,0.04211 0.07913,0.01642 0.158473,0.03289 0.239908,0.03096 0.08508,-3.52e-4 0.17021,-4.93e-4 0.255261,-0.003 0.06846,-0.0024 0.137071,-0.0051 0.205157,-0.01293 0.08227,-0.01013 0.16371,-0.0253 0.246049,-0.03496 0.08428,-0.0094 0.168544,-0.01965 0.253306,-0.02395 0.107836,-0.0042 0.215558,-0.0095 0.323367,-0.01431 0.04343,-0.0015 0.08682,-0.0023 0.130212,-0.0025 z m -5.783759,0.382586 c -1.43e-4,-1.41e-4 -3.57e-4,-1.41e-4 -2.86e-4,1.41e-4 0.0019,0.01205 0.0059,0.02385 0.01144,0.03496 -0.0025,-0.01089 -0.005,-0.02176 -0.0092,-0.0322 -3.57e-4,-7.75e-4 -0.0015,-0.0025 -0.002,-0.0029 z m 0.686789,1.662599 c 0.0018,0.0071 0.0038,0.01406 0.0061,0.02092 2.14e-4,-4.23e-4 4.29e-4,-0.0019 2.86e-4,-0.0025 -0.0013,-0.0053 -0.0027,-0.01062 -0.005,-0.01555 -4.28e-4,-9.73e-4 -9.29e-4,-0.0019 -0.0014,-0.0029 z m -0.715957,0.70283 c 0.0017,0.0027 0.0033,0.0055 0.005,0.0081 8.22e-4,0.0013 -0.0014,-0.0027 -0.0022,-0.004 -9.29e-4,-0.0014 -0.0019,-0.0028 -0.0028,-0.0041 z" /></clipPath><clipPath
     clipPathUnits="userSpaceOnUse"
     id="clipPath25124"><path
       id="path25126"
       style="fill:#ff0000;fill-opacity:1;fill-rule:nonzero;stroke:none;stroke-width:0.136753"
       d="m 99.534079,-101.59609 14.536111,3.851177 47.73085,-51.685567 -14.53611,-3.85118 z m 11.340121,-9.71707 c 0.15874,-0.17195 0.31896,-0.34314 0.48039,-0.51429 0.22026,-0.23487 0.43948,-0.47048 0.65996,-0.70528 0.23823,-0.25593 0.47664,-0.51158 0.71765,-0.76653 0.2311,-0.24441 0.46145,-0.48892 0.69123,-0.73385 0.26285,-0.27915 0.52782,-0.55745 0.79145,-0.83626 0.22568,-0.23858 0.45182,-0.47735 0.66851,-0.71861 0.20539,-0.22643 0.40897,-0.45296 0.61209,-0.6797 0.2229,-0.24647 0.4482,-0.49247 0.67583,-0.73793 0.18754,-0.20344 0.37497,-0.40674 0.56162,-0.61039 0.15136,-0.16525 0.30202,-0.33075 0.45723,-0.49491 0.18232,-0.1927 0.36631,-0.38543 0.55472,-0.57443 0.1785,-0.17868 0.35804,-0.35615 0.54062,-0.52903 0.12881,-0.16055 0.29037,-0.31435 0.44751,-0.46016 0.0338,-0.0306 0.10705,-0.0969 0.17194,-0.15098 0.0613,-0.0575 0.12302,-0.11346 0.1858,-0.16761 0.0477,-0.0395 0.0959,-0.081 0.14321,-0.11844 0.17538,-0.13889 0.33337,-0.23311 0.48954,-0.33044 0.0293,-0.0175 0.0581,-0.0341 0.0868,-0.0507 0.0561,-0.0503 0.11602,-0.0972 0.18469,-0.14382 0.0326,-0.0221 0.0571,-0.0301 0.0858,-0.0453 0.0792,-0.0292 0.11632,-0.0252 0.13737,0.0104 -0.008,0.0256 -0.009,0.047 -0.015,0.0712 0.0486,-0.0441 0.0971,-0.0886 0.14576,-0.1324 0.64859,-0.58442 0.72185,-0.32911 0.0733,0.25563 -0.101,0.0911 -0.20161,0.18435 -0.30239,0.27657 0.005,0.008 0.008,0.0178 0.008,0.0318 -7e-4,0.0304 -0.0255,0.0807 -0.0461,0.12667 -0.008,0.0175 -0.0255,0.041 -0.0383,0.0617 -0.0758,0.11069 -0.16482,0.22628 -0.26803,0.34519 -0.1285,0.14827 -0.26724,0.30562 -0.42131,0.43546 -0.0438,0.0369 -0.0858,0.066 -0.12874,0.0991 -0.0816,0.0518 -0.0535,0.0358 -0.099,0.0612 -0.005,0.003 -0.0109,0.006 -0.0161,0.009 -10e-4,8.3e-4 -0.004,0.003 -0.005,0.003 l 2.1e-4,-4.3e-4 c 0.0106,-0.0104 0.0132,-0.008 0.0109,-0.009 -0.0145,0.008 -0.047,0.0367 -0.0624,0.0501 -0.0245,0.0211 -0.0487,0.0428 -0.0731,0.0647 0.008,0.0565 -0.0465,0.15783 -0.15478,0.29725 -0.0747,0.0915 -0.15469,0.18309 -0.2404,0.27457 -0.10695,0.11686 -0.2137,0.23386 -0.3194,0.35095 -0.15167,0.16806 -0.30168,0.33609 -0.45217,0.50428 -0.15604,0.17482 -0.31154,0.34976 -0.46873,0.52446 -0.17126,0.18897 -0.34371,0.37804 -0.52116,0.56537 -0.17768,0.18771 -0.3565,0.37473 -0.53788,0.56046 -0.19485,0.19841 -0.39201,0.3944 -0.59057,0.58903 -0.20552,0.20235 -0.41207,0.40381 -0.6163,0.60772 -0.12374,0.12398 -0.24862,0.24712 -0.36899,0.37372 -0.15868,0.16659 -0.31817,0.33268 -0.47471,0.5002 -0.0931,0.0991 -0.18592,0.19829 -0.27883,0.29745 0.0278,0.0102 0.047,0.0301 0.0632,0.0517 0.009,0.0122 -0.0328,0.0669 -0.0536,0.10298 -0.0344,0.06 -0.095,0.13486 -0.1469,0.20202 -0.16151,0.1957 -0.33932,0.39333 -0.51896,0.58862 -0.0459,0.0489 -0.091,0.0978 -0.13732,0.14645 -0.27427,0.28845 -0.56013,0.57019 -0.84981,0.84065 -0.0678,0.0627 -0.13571,0.1263 -0.20368,0.18839 -0.13856,0.1266 -0.28413,0.25631 -0.42313,0.3778 -0.15077,0.13178 -0.27693,0.24051 -0.42637,0.36278 -0.0486,0.0398 -0.0969,0.0777 -0.14527,0.11599 -0.0112,0.0197 -0.0207,0.0383 -0.0322,0.0581 0.0343,-0.0154 0.0676,-0.0294 0.1023,-0.0457 0.0514,-0.01 0.1145,-0.0337 0.15421,-0.03 0.0157,9.9e-4 0.0281,0.006 0.0414,0.011 0.0214,-0.0211 0.043,-0.0422 0.0647,-0.0632 l 3.6e-4,-3.9e-4 c 0.27587,-0.26629 0.38336,-0.35401 0.39458,-0.33671 0.2878,-0.22255 0.0746,0.11895 -0.16006,0.47679 0.12706,-0.11199 0.2542,-0.2226 0.38079,-0.32808 0.0269,-0.0224 0.004,0.023 0.006,0.0342 0.003,0.0176 0.007,0.0353 0.0113,0.0521 0.0211,0.0833 0.0592,0.14965 0.0983,0.21596 0.0681,0.10052 0.13603,0.20166 0.23317,0.27342 0.0443,0.0301 0.0979,0.0507 0.15339,0.069 0.0603,0.0172 0.11866,0.0367 0.18341,0.0491 0.0533,0.0149 0.12631,0.007 0.18521,0.016 0.0468,0.13288 0.10671,0.0658 -0.24067,0.52866 -0.0476,0.0634 -0.12336,0.12854 -0.18677,0.19145 -0.0858,0.0851 -0.18154,0.16686 -0.26938,0.24469 -0.15472,0.14084 -0.30197,0.29732 -0.4471,0.44893 -0.32372,0.34133 -0.64272,0.6849 -0.96358,1.02734 -0.3208,0.34219 -0.64045,0.68472 -0.95927,1.02755 -0.0952,0.10202 -0.18943,0.20429 -0.28412,0.30645 -0.21309,0.39383 -0.58877,0.71603 -0.75708,0.72821 -0.0119,0.0253 -0.0246,0.0512 -0.0363,0.0764 -0.0604,0.12763 -0.11319,0.24963 -0.16034,0.36759 0.0779,0.0123 0.14646,0.035 0.20708,0.0662 0.10348,0.0464 0.20088,0.0992 0.29552,0.15483 0.0146,-0.009 0.0295,-0.0171 0.044,-0.0257 0.0812,-0.0487 0.14403,-0.0683 0.20928,-0.0929 0.12182,-0.0458 0.23497,-0.0672 0.33957,-0.0905 0.23675,-0.053 0.42712,-0.0506 0.59201,-0.0203 0.0535,0.0132 0.18912,0.0533 0.11075,0.17438 -0.0992,0.15336 -0.22011,0.31857 -0.35331,0.48701 0.11956,-0.0234 0.2192,-0.0219 0.30523,-0.024 0.17563,-5e-5 0.33742,0.0156 0.49409,0.0369 0.10136,0.0144 0.17065,0.0181 0.14381,0.10236 0.08,-0.0139 0.14955,-0.003 0.20078,0.0404 0.0445,0.0378 0.0864,0.0783 0.12809,0.11897 0.006,0.004 0.011,0.008 0.0161,0.0123 0.13033,-0.0561 0.13399,-0.037 0.0566,0.0755 0.014,0.0294 0.0238,0.0627 0.0295,0.0999 0.004,0.023 0.004,0.0489 -8.6e-4,0.0773 0.15355,-0.10483 0.29969,-0.19509 0.42739,-0.25337 0.20209,-0.0927 0.38784,-0.16209 0.48828,-0.12716 0.0156,0.008 0.0337,0.0143 0.047,0.0252 0.0545,0.0452 0.0584,0.13988 0.0466,0.24571 -0.0182,0.0845 -0.047,0.17718 -0.0792,0.2724 0.0113,-0.009 0.0229,-0.019 0.0336,-0.027 0.019,-0.0144 0.0369,-0.0261 0.0554,-0.0392 0.0338,-0.0192 0.054,-0.0326 0.0786,-0.0387 0.0417,-0.0104 0.0576,0.004 0.0444,0.0482 -0.004,0.0119 -0.0127,0.028 -0.0188,0.0418 -0.0135,0.0235 -0.0283,0.0476 -0.0443,0.0724 0.0442,-0.0258 0.0603,-0.0119 0.0272,0.0464 0.127,-0.11914 0.17893,-0.10334 0.0579,0.0517 0.0559,-0.0247 0.0545,0.006 0.0346,0.0564 0.0133,-0.0151 0.0273,-0.0309 0.0378,-0.0363 0.0406,-0.0204 0.0687,-0.0239 0.0993,-0.0304 l 3.6e-4,-3.9e-4 c 0.008,-0.009 0.0167,-0.0174 0.0246,-0.0256 0.008,-0.009 0.0282,-0.0227 0.0374,-0.0293 0.0223,-0.0158 0.0416,-0.0272 0.0601,-0.0356 0.014,-0.006 0.0252,-0.008 0.0329,-0.006 0.002,3.8e-4 0.003,9.7e-4 0.004,0.002 0.004,0.002 0.006,0.006 0.007,0.01 l 3.1e-4,8e-5 c 9.9e-4,1.6e-4 0.002,3.3e-4 0.003,8e-4 10e-4,9.9e-4 0.003,0.002 0.004,0.004 0.002,0.005 -6.7e-4,0.014 -0.005,0.0242 0.008,-0.007 0.0172,-0.0113 0.0231,-0.0104 l 0.0173,0.005 0.002,5.2e-4 c 0.002,5e-5 0.004,-3.7e-4 0.006,1.6e-4 2.5e-4,0.002 0.002,0.002 0.003,0.004 l 1.5e-4,4e-5 c 0.004,-0.003 0.008,-0.004 0.0111,-0.004 0.003,-1.8e-4 0.006,-1.1e-4 0.009,4.4e-4 0.002,3.8e-4 0.004,-2.9e-4 0.007,-4.6e-4 0.002,3e-4 0.004,3.5e-4 0.006,1.5e-4 0.002,-1.9e-4 0.005,-6.8e-4 0.008,-0.002 0.003,-9e-4 0.006,-5.7e-4 0.006,0.002 10e-4,-6.9e-4 0.002,-0.002 0.003,-0.002 0.002,-9.2e-4 0.004,-10e-4 0.005,-10e-4 0.003,-4.1e-4 0.005,10e-4 0.006,0.002 6.3e-4,9e-4 7e-5,0.003 8.3e-4,0.004 6.9e-4,4.2e-4 7.3e-4,6.7e-4 0.002,0.002 1.3e-4,-5e-5 8.8e-4,9e-5 9.7e-4,-2.2e-4 0.001,-4.6e-4 5.2e-4,-3.5e-4 0.002,-9.3e-4 1.3e-4,-5e-5 1.8e-4,1.3e-4 3.1e-4,8e-5 8.3e-4,-2.6e-4 0.002,-8.9e-4 0.002,-8.8e-4 0.006,-0.001 0.008,-6.4e-4 0.008,0.003 9.8e-4,-9.5e-4 3.2e-4,2.8e-4 1.1e-4,0.003 -6.8e-4,0.002 -6.1e-4,0.004 -6.4e-4,0.006 -5.4e-4,0.003 2.2e-4,0.005 3.8e-4,0.007 2.8e-4,0.003 2.4e-4,0.006 1.4e-4,0.009 -10e-5,0.003 1.1e-4,0.007 -2e-5,0.0104 1.2e-4,0.004 1.6e-4,0.007 1e-4,0.0109 -1.6e-4,0.004 -4.2e-4,0.009 -5.5e-4,0.0126 -2.6e-4,0.003 -8.3e-4,0.007 -6.7e-4,0.009 2.8e-4,0.003 5.6e-4,0.005 7.5e-4,0.008 3.8e-4,0.004 7.7e-4,0.008 9.4e-4,0.0116 7.1e-4,0.005 7.8e-4,0.01 0.002,0.0152 6.3e-4,0.006 6e-5,0.0117 0.002,0.017 5.8e-4,0.004 9.5e-4,0.008 9.5e-4,0.0116 2.6e-4,0.005 8.3e-4,0.01 3.5e-4,0.0157 -7.4e-4,0.008 -9.8e-4,0.0161 -9.6e-4,0.0238 -6.1e-4,0.007 -2.1e-4,0.014 -0.002,0.0212 -8.9e-4,0.007 -0.002,0.013 -0.002,0.0198 -7.5e-4,0.005 -9.8e-4,0.0104 -0.002,0.016 -9.9e-4,0.006 -0.002,0.0112 -0.003,0.0167 -8.5e-4,0.005 -0.002,0.0107 -0.003,0.0148 -6.5e-4,0.003 -2.4e-4,0.006 1.3e-4,0.009 2.6e-4,0.002 0.002,0.004 0.002,0.006 10e-4,0.002 0.002,0.004 0.002,0.007 2.5e-4,0.002 7e-5,0.004 -2.8e-4,0.007 -3e-4,6.4e-4 6.5e-4,3e-5 8e-5,0.002 -0.005,0.0165 -0.0262,0.0126 -0.0285,0.0184 -5e-5,-2.5e-4 -2.6e-4,-5.5e-4 -5e-5,-9.8e-4 -2.6e-4,-0.002 -9.2e-4,-0.004 -0.002,-0.006 -0.001,-0.002 -0.002,-0.005 -0.002,-0.007 -2.5e-4,-0.002 -2.3e-4,-0.005 6e-5,-0.008 l -0.003,0.003 c -0.007,0.006 -0.0143,0.013 -0.0202,0.0164 -0.007,0.004 -0.009,8.5e-4 -0.008,-0.002 -6e-5,-9.8e-4 1.9e-4,-0.004 0.002,-0.006 6.7e-4,-0.002 6.9e-4,-0.004 0.002,-0.007 -9.5e-4,7.1e-4 -0.002,0.002 -0.004,0.004 -0.002,0.002 -0.005,0.004 -0.007,0.005 -0.009,0.005 -0.0137,0.005 -0.0169,0.004 -0.003,-0.002 -0.006,-0.004 -0.002,-0.0119 l 6.7e-4,-3e-4 c 0.003,-0.006 0.005,-0.009 0.006,-0.0102 -0.002,9.2e-4 -0.003,0.002 -0.005,0.002 -0.004,0.004 -0.005,0.004 -0.005,0.002 -2.2e-4,1.4e-4 -6.6e-4,3e-4 -8.2e-4,2.6e-4 -3.1e-4,1.4e-4 -4.1e-4,-7e-5 -9.8e-4,2.3e-4 -0.006,0.002 -0.008,-4.2e-4 -0.008,-0.005 l 1e-4,-9.4e-4 c -0.0144,0.0151 -0.0315,0.0284 -0.048,0.0374 9e-5,0.003 1.3e-4,0.006 1.4e-4,0.009 8.1e-4,0.0231 -4.8e-4,0.0478 -0.005,0.0752 -0.002,0.0184 -0.005,0.0379 -0.004,0.0542 6.9e-4,0.016 0.002,0.0312 0.005,0.0453 0.003,0.0191 0.008,0.0367 0.009,0.0576 5.1e-4,0.0221 -4.2e-4,0.0455 -0.004,0.0712 -0.005,0.0243 -0.0125,0.0508 -0.0166,0.0745 -0.005,0.0248 -0.0109,0.0495 -0.0152,0.0734 -0.003,0.0219 -0.005,0.0424 -0.002,0.0595 7.7e-4,0.0205 0.003,0.0393 0.005,0.059 0.001,0.0186 0.003,0.0369 0.002,0.0568 -2.4e-4,0.0189 -2e-5,0.0375 -3e-5,0.0562 -4.3e-4,0.0181 -0.003,0.0382 -0.005,0.0577 -0.002,0.0172 -0.005,0.0349 -0.006,0.0513 -0.002,0.0157 -0.002,0.0305 -4.8e-4,0.0429 0.003,0.0163 0.009,0.0299 0.0163,0.0426 0.008,0.016 0.0158,0.0317 0.0223,0.0489 0.005,0.0154 0.0108,0.0308 0.0161,0.0463 0.006,0.0138 0.0129,0.026 0.0219,0.0365 0.003,0.004 0.005,0.008 0.008,0.0125 0.0172,0.0162 0.006,0.0173 -0.10288,0.12014 -9.6e-4,9.6e-4 -0.002,0.003 -0.003,0.004 0.002,0.006 0.005,0.0112 0.007,0.0169 0.006,0.0158 0.0114,0.0329 0.0159,0.0505 0.006,0.0197 0.01,0.0407 0.0157,0.0604 0.007,0.0257 0.0127,0.0525 0.0175,0.0798 0.003,0.0145 0.005,0.0293 0.008,0.0437 5e-5,5e-5 2.5e-4,4e-5 3.1e-4,8e-5 0.006,0.004 0.0118,0.0106 0.0162,0.0166 0.008,0.01 0.0123,0.0225 0.0154,0.0367 0.002,0.01 0.003,0.0195 2.3e-4,0.0331 -9.8e-4,0.004 -9e-4,0.008 -0.004,0.0131 -0.008,0.016 -0.0185,0.0337 -0.0279,0.0507 -0.0135,0.0121 -0.0272,0.0247 -0.0407,0.0374 0.002,0.007 0.002,0.0145 0.003,0.022 0.001,0.0165 0.002,0.0336 0.003,0.0504 9e-4,0.0155 0.002,0.0311 0.006,0.0436 0.003,0.0148 0.007,0.03 0.011,0.044 l 5.6e-4,-8.2e-4 c 0.007,0.0239 -0.004,0.0566 -0.0247,0.0903 0.004,0.001 0.009,0.003 0.0132,0.004 0.0105,0.004 0.0207,0.009 0.0296,0.0149 0.009,0.005 0.019,0.009 0.0285,0.0142 0.0116,0.004 0.0236,0.009 0.0329,0.0153 0.01,0.007 0.017,0.0165 0.0232,0.0274 0.005,0.009 0.008,0.0185 0.0149,0.0262 0.007,0.008 0.016,0.0138 0.0234,0.0213 0.0116,0.0163 0.0176,0.0382 -0.008,0.0853 -0.003,0.005 -0.006,0.009 -0.009,0.0132 6e-5,0 3.4e-4,6e-5 4.6e-4,1.3e-4 5.4e-4,1.5e-4 -6.7e-4,0.002 -9.4e-4,0.003 -2e-4,4.3e-4 -1.7e-4,9.2e-4 -4.1e-4,8.5e-4 9.5e-4,-9.5e-4 0.002,-0.002 0.003,-0.002 9.5e-4,-9.5e-4 0.003,-0.002 0.004,-0.002 0.003,-0.002 0.006,-0.002 0.008,-0.002 0.001,8e-5 0.002,6e-5 0.003,3.3e-4 0.002,5.4e-4 0.003,0.002 0.003,0.004 2.5e-4,0.002 6.7e-4,0.004 2.6e-4,0.006 0.008,-0.008 0.0182,-0.0135 0.016,-0.003 -1e-4,9.5e-4 -8.2e-4,0.003 -9e-4,0.004 -1e-4,9.4e-4 2.5e-4,0.002 6.3e-4,0.003 1.3e-4,0.001 3.4e-4,0.002 0.002,0.003 9.6e-4,9.8e-4 0.002,0.003 0.003,0.004 0.001,0.002 3.5e-4,0.003 0.002,0.006 2.5e-4,0.002 1.2e-4,0.005 1.7e-4,0.007 9e-5,0.003 7.8e-4,0.005 6e-4,0.008 1e-5,0.003 -3.9e-4,0.006 -6.8e-4,0.009 -6.7e-4,0.002 -6.1e-4,0.005 -7.3e-4,0.007 2.4e-4,0.002 -3.5e-4,0.004 -1.8e-4,0.006 2.5e-4,0.002 -2.9e-4,0.004 -3.2e-4,0.006 2.6e-4,0.002 0.001,0.004 0.002,0.007 0.001,0.002 3.4e-4,0.005 0.002,0.008 6.2e-4,0.003 3e-4,0.006 2.9e-4,0.009 1e-5,0.003 2.4e-4,0.006 4.4e-4,0.009 2.8e-4,0.003 7.9e-4,0.005 0.001,0.008 2.5e-4,0.002 -3.9e-4,0.004 -3.3e-4,0.006 2.4e-4,0.002 7.2e-4,0.004 0.001,0.005 2.4e-4,0.002 8.9e-4,0.003 0.001,0.005 2.5e-4,0.002 10e-4,0.003 0.002,0.004 0.001,0.002 0.002,0.003 0.002,0.005 2.5e-4,0.002 0.001,0.004 0.001,0.006 2.5e-4,0.002 -1e-5,0.004 -3e-5,0.006 2.6e-4,0.002 8e-4,0.004 7.7e-4,0.006 2.5e-4,0.002 -2.3e-4,0.005 -4.4e-4,0.007 -4.6e-4,0.003 -6.7e-4,0.005 -6.7e-4,0.008 -10e-5,9.4e-4 -7e-5,0.003 -1.4e-4,0.004 -7.5e-4,0.0147 -0.0299,0.0398 -0.0292,0.0249 -2.4e-4,-0.002 4.7e-4,-0.003 6.9e-4,-0.005 6.7e-4,-0.002 3e-5,-0.005 2.2e-4,-0.008 6.6e-4,-0.002 4.6e-4,-0.004 4.8e-4,-0.006 -2.4e-4,-0.002 4.4e-4,-0.003 1.4e-4,-0.004 -6.9e-4,0.002 -0.003,0.003 -0.005,0.005 -0.01,0.01 -0.0162,0.0126 -0.0202,0.0121 -0.002,-3.2e-4 -0.004,-10e-4 -0.006,-10e-4 l -0.003,-8e-4 c -0.02,0.0205 -0.019,0.0191 -0.0197,0.0132 -3.4e-4,-0.005 -5.2e-4,-0.009 -0.002,-0.0138 -8e-4,-0.005 -8e-4,-0.0101 -8e-4,-0.0158 -0.003,0.004 -0.007,0.007 -0.0105,0.01 -0.006,0.005 -0.009,0.006 -0.0126,0.007 -0.005,6.1e-4 -0.009,9.5e-4 -0.0125,9.4e-4 -0.005,-6e-4 -0.009,-10e-4 -0.0132,-0.002 -0.006,-0.001 -0.0128,-0.002 -0.0185,-0.003 -0.006,-0.001 -0.0112,-0.002 -0.0183,-0.002 l -0.003,6.5e-4 c -0.0684,0.0949 -0.18332,0.17316 -0.18268,0.0924 1.1e-4,-0.0147 0.003,-0.0318 0.008,-0.0503 0.005,-0.0165 0.01,-0.0336 0.0172,-0.0521 0.008,-0.0185 0.0204,-0.043 0.041,-0.069 -0.008,-0.008 -0.0108,-0.0204 -0.0167,-0.0304 -0.004,-0.008 -0.0103,-0.0144 -0.0176,-0.0198 -0.007,-0.005 -0.016,-0.009 -0.0257,-0.012 -0.0115,-0.005 -0.0225,-0.0108 -0.0332,-0.0163 -0.008,-0.005 -0.0177,-0.0101 -0.0272,-0.0133 -0.0115,-0.004 -0.0235,-0.008 -0.0357,-0.0119 -0.0134,-0.005 -0.0326,-0.004 -0.0508,-0.004 -0.0187,0.001 -0.0375,0.003 -0.0562,0.004 -0.017,9.8e-4 -0.0325,7.6e-4 -0.0485,8.5e-4 -0.019,-2.4e-4 -0.0363,-0.003 -0.0528,-0.006 -0.0122,-0.002 -0.0222,-0.007 -0.0329,-0.0111 -0.005,0.005 -0.0106,0.009 -0.0155,0.0129 -0.0388,0.0314 -0.0745,0.0559 -0.10378,0.0684 l 3.6e-4,-3.9e-4 c -0.0848,0.0363 -0.009,-0.0298 0.0703,-0.0995 -0.007,-0.003 -0.0144,-0.006 -0.0214,-0.009 -0.0219,-0.01 -0.0198,-0.0348 -0.006,-0.0644 -0.024,-0.002 -0.0491,-0.002 -0.0743,-0.003 -0.0535,-2.7e-4 -0.10511,-0.003 -0.15425,-0.008 -0.0511,-0.004 -0.0939,-0.0181 -0.13651,-0.0319 -0.044,-0.0129 -0.0824,-0.0314 -0.12163,-0.0492 -0.0425,-0.0178 -0.0864,-0.034 -0.12793,-0.0528 -0.0136,-0.006 -0.0255,-0.0138 -0.0388,-0.0202 -0.006,1.1e-4 -0.0125,-2e-5 -0.0186,-1.9e-4 -0.035,-6.9e-4 -0.0595,-0.002 -0.0918,-0.005 -0.0413,-0.005 -0.079,-0.0129 -0.11699,-0.0211 -0.0482,-0.0135 -0.10007,-0.0236 -0.13456,-0.0517 -0.005,-0.004 -0.01,-0.01 -0.0149,-0.0148 -0.005,-0.007 -0.005,-0.0181 -0.007,-0.0278 -0.0186,0.0191 -0.0383,0.04 -0.0564,0.0531 -0.0497,0.0358 -0.0916,0.0556 -0.13735,0.0836 -0.007,-0.009 -0.017,-0.0159 -0.0235,-0.0256 -0.31586,0.30303 -0.68338,0.49325 -0.80044,0.28162 -0.0322,-0.0582 -0.0221,-0.15461 -0.007,-0.25506 10e-4,-0.008 0.002,-0.0166 0.004,-0.0249 -0.0594,0.0529 -0.12191,0.10851 -0.18832,0.16789 -0.11542,0.10322 -0.15246,-0.1076 -0.16027,-0.14639 -0.003,-0.0733 0.0177,-0.16577 0.0461,-0.26464 10e-4,-0.0141 0.002,-0.028 0.003,-0.0422 0.004,-0.0656 0.006,-0.13092 0.0123,-0.19894 -0.064,0.0448 -0.1276,0.088 -0.19221,0.13569 -0.082,0.0335 -0.17435,0.0806 -0.2459,0.1002 -0.16405,0.0448 -0.25722,-0.0717 -0.32104,-0.14411 -0.16126,0.0546 -0.30181,0.0836 -0.42555,0.0918 -0.13891,0.002 -0.26013,-0.0157 -0.36286,-0.0536 -0.0958,-0.0394 -0.18153,-0.0891 -0.26585,-0.14035 -0.0773,-0.0545 -0.1566,-0.10721 -0.24126,-0.15415 -0.0257,-0.0141 -0.0526,-0.0267 -0.0795,-0.0395 -0.11288,-0.0542 -0.11488,-0.17938 -0.0507,-0.33138 -0.0515,0.0181 -0.10479,0.0382 -0.15887,0.0595 -0.17417,0.0719 -0.33973,0.13215 -0.49621,0.18032 -0.16661,0.0502 -0.29834,0.0576 -0.41982,0.0537 -0.11102,-0.004 -0.19552,-0.0362 -0.27426,-0.0751 -0.0742,-0.0339 -0.14328,-0.0734 -0.20928,-0.11591 -0.0653,-0.055 -0.12758,-0.11325 -0.18437,-0.17688 -0.0518,-0.0524 -0.0898,-0.11828 -0.12634,-0.18559 -0.0315,-0.0625 -0.062,-0.12581 -0.0783,-0.20262 -0.0238,-0.0818 -0.0132,-0.19358 0.0186,-0.32295 0.0517,-0.1795 0.16645,-0.40376 0.29601,-0.63683 0.14583,-0.25354 0.32308,-0.52456 0.50056,-0.79523 0.19554,-0.2915 0.38698,-0.58097 0.56753,-0.86488 0.13025,-0.20788 0.25239,-0.4112 0.37701,-0.61585 -0.17465,0.14071 -0.28645,0.17759 -0.25889,0.007 0.005,-0.028 0.009,-0.0562 0.0137,-0.0842 0.0327,-0.10081 0.035,-0.12764 0.1065,-0.25902 0.0621,-0.11426 0.14762,-0.24067 0.25219,-0.37301 -0.028,-0.003 -0.0283,-0.0343 -0.0355,-0.0581 -0.0177,-0.0585 0.0133,-0.16007 0.0451,-0.2597 0.0632,-0.18697 0.1518,-0.39286 0.2727,-0.62033 0.0265,-0.0476 0.0512,-0.0937 0.0794,-0.14241 0.14131,-0.24177 0.33121,-0.51044 0.55746,-0.78865 0.0494,-0.0578 0.0971,-0.11557 0.14792,-0.17341 0.0403,-0.0457 0.0813,-0.0913 0.12307,-0.13652 l 6.1e-4,1.6e-4 c 0.18291,-0.19824 0.37819,-0.39135 0.57234,-0.58252 0.16769,-0.16346 0.33718,-0.32698 0.50775,-0.4853 0.003,-0.0113 0.006,-0.023 0.0109,-0.0354 0.0315,-0.0877 0.12056,-0.20531 0.21738,-0.32413 0.15747,-0.18545 0.32392,-0.37142 0.49304,-0.55628 0.0525,-0.0574 0.10526,-0.11479 0.15818,-0.1721 z m 7.51967,-8.00431 c 0.003,-0.003 0.006,-0.005 0.009,-0.008 3.8e-4,-3.8e-4 7.1e-4,-7.8e-4 0.001,-0.001 -0.001,9.1e-4 -0.002,0.002 -0.003,0.003 -10e-4,0.001 -0.004,0.004 -0.006,0.006 z m 2.13519,-2.26508 1.5e-4,4e-5 2.3e-4,5.5e-4 c 0.0189,-0.0212 0.0471,-0.046 0.0812,-0.0678 0.0109,-0.007 0.0219,-0.0139 0.0324,-0.0202 0.0102,-0.006 0.0203,-0.0115 0.0305,-0.0174 0.003,-0.002 0.007,-0.005 0.011,-0.007 0.002,-9.3e-4 0.0136,-0.01 0.0139,-0.01 0.009,-0.006 0.0173,-0.0119 0.0259,-0.0177 0.0103,-0.007 0.0202,-0.0135 0.03,-0.0195 0.008,-0.005 0.0153,-0.01 0.0228,-0.0143 0.008,-0.005 0.0156,-0.01 0.0232,-0.0142 0.009,-0.005 0.0172,-0.01 0.0258,-0.0149 0.0116,-0.007 0.0233,-0.0137 0.0349,-0.0205 0.0144,-0.009 0.0285,-0.0168 0.0425,-0.0247 0.0155,-0.009 0.0309,-0.0166 0.0466,-0.0254 0.0164,-0.009 0.0321,-0.0175 0.0486,-0.0268 0.0164,-0.009 0.0324,-0.0173 0.0485,-0.0259 0.0171,-0.009 0.0345,-0.0185 0.0518,-0.0278 0.0147,-0.008 0.0296,-0.0161 0.0452,-0.0253 0.018,-0.011 0.0366,-0.023 0.0552,-0.035 0.0223,-0.0143 0.0445,-0.0285 0.0666,-0.0424 0.0205,-0.0127 0.0413,-0.0259 0.062,-0.0388 0.02,-0.0123 0.0399,-0.0249 0.06,-0.0375 0.019,-0.0118 0.0383,-0.0238 0.0567,-0.0346 0.0198,-0.0115 0.0393,-0.0228 0.0587,-0.0336 0.0184,-0.0106 0.0365,-0.0207 0.055,-0.0312 0.0195,-0.0112 0.04,-0.0239 0.06,-0.0361 0.0206,-0.0126 0.041,-0.0251 0.0614,-0.0371 0.0181,-0.0109 0.0369,-0.0232 0.0555,-0.0349 0.0221,-0.0138 0.0448,-0.0286 0.0673,-0.0431 0.0245,-0.0157 0.0489,-0.0312 0.073,-0.0463 0.0237,-0.0151 0.0469,-0.0297 0.0703,-0.0442 0.0224,-0.0139 0.0446,-0.0275 0.0669,-0.0413 0.0208,-0.0128 0.0417,-0.0258 0.0626,-0.0387 0.0208,-0.0129 0.0416,-0.0263 0.0626,-0.0397 0.0209,-0.0134 0.0427,-0.0285 0.0639,-0.0426 0.022,-0.0144 0.0442,-0.0294 0.0667,-0.0447 0.0248,-0.0166 0.0497,-0.0339 0.0748,-0.0511 0.0274,-0.019 0.0547,-0.0375 0.0816,-0.0554 0.0212,-0.014 0.0419,-0.0265 0.0623,-0.0388 0.012,-0.007 0.0236,-0.0141 0.0353,-0.0209 0.0986,-0.0571 0.0388,0.0439 -0.0597,0.10087 -0.0105,0.006 -0.0206,0.0119 -0.0315,0.0186 -0.0169,0.0102 -0.0337,0.0203 -0.0513,0.0318 -0.0258,0.0171 -0.0519,0.0349 -0.0781,0.053 -0.0253,0.0172 -0.0508,0.0349 -0.0759,0.0517 -0.0235,0.016 -0.0471,0.032 -0.0702,0.0471 -0.0227,0.015 -0.0456,0.0305 -0.0679,0.0448 -0.0221,0.0141 -0.0445,0.0285 -0.0662,0.042 -0.0208,0.0129 -0.0414,0.0256 -0.0621,0.0383 -0.0224,0.0139 -0.0448,0.0277 -0.0673,0.0417 -0.023,0.0142 -0.046,0.0287 -0.0693,0.0435 -0.023,0.0144 -0.0465,0.0295 -0.0697,0.0444 -0.023,0.0149 -0.0462,0.0299 -0.0689,0.0441 -0.0208,0.0132 -0.0418,0.0267 -0.062,0.0388 -0.0198,0.0118 -0.0397,0.0238 -0.0598,0.0361 -0.0216,0.0131 -0.0434,0.0269 -0.0642,0.0388 -0.0193,0.0112 -0.0382,0.0215 -0.0574,0.0325 -0.0183,0.0103 -0.0368,0.0209 -0.0553,0.0316 -0.0161,0.009 -0.0328,0.0197 -0.0494,0.0299 -0.0201,0.0126 -0.0402,0.0255 -0.0602,0.0379 -0.0208,0.0131 -0.0419,0.0264 -0.0625,0.0392 -0.0206,0.0129 -0.0413,0.0263 -0.0622,0.0397 -0.0218,0.0142 -0.0433,0.0277 -0.0645,0.0406 -0.0184,0.0109 -0.0365,0.0213 -0.054,0.0306 -0.0173,0.009 -0.0348,0.0187 -0.052,0.0278 -0.0148,0.008 -0.0297,0.0155 -0.0447,0.0236 -0.0167,0.009 -0.0327,0.0178 -0.0493,0.0271 -0.0153,0.008 -0.0306,0.0168 -0.0458,0.0252 -0.0129,0.007 -0.0259,0.0147 -0.0393,0.0226 -0.0116,0.007 -0.0233,0.0137 -0.0349,0.0205 -0.008,0.005 -0.0152,0.009 -0.023,0.0133 -0.007,0.004 -0.0138,0.008 -0.0208,0.0129 -0.008,0.005 -0.0155,0.01 -0.0233,0.0146 -0.006,0.004 -0.0127,0.008 -0.0196,0.0123 -0.006,0.004 -0.0111,0.007 -0.0167,0.0112 -5.1e-4,3.5e-4 -0.002,0.002 -0.005,0.003 -0.006,0.004 -0.0111,0.009 -0.0165,0.0122 -0.01,0.006 -0.0196,0.0129 -0.0289,0.0183 -0.009,0.005 -0.0177,0.0102 -0.0264,0.0152 -0.009,0.005 -0.0173,0.0105 -0.0262,0.0162 -0.0697,0.0446 -0.0702,0.0167 -0.0315,-0.0268 z m -10.47116,11.60882 c -0.007,0.0124 -0.0129,0.0237 -0.0183,0.0348 0.006,-0.0118 0.0124,-0.0232 0.0183,-0.0348 z m 1.17964,-0.70791 c -0.006,0.007 -0.0117,0.0133 -0.0159,0.0194 -0.004,0.005 0.0114,-0.0117 0.0142,-0.0166 4.5e-4,-8.4e-4 0.001,-0.002 0.002,-0.003 z m 1.07267,-1.11656 c 0.006,-0.005 0.0107,-0.01 0.0145,-0.0136 -0.005,0.005 -0.01,0.009 -0.0145,0.0136 z m -1.97549,2.52566 -0.006,0.009 c 0.002,-9.3e-4 0.004,-0.002 0.005,-0.003 0.016,-0.0105 0.0648,-0.0481 0.0524,-0.0433 -0.007,0.003 -0.0267,0.0176 -0.0515,0.0378 z m -2.07178,2.36882 c -0.008,0.008 0.0169,-0.0131 0.0254,-0.0197 0.0139,-0.0124 0.0273,-0.0248 0.0407,-0.0374 -0.0223,0.0179 -0.0445,0.0367 -0.0661,0.0571 z m 0.15223,-0.16423 7e-4,6.7e-4 c -3.2e-4,1.5e-4 -0.001,10e-4 -0.001,10e-4 -4.1e-4,8.6e-4 -8.4e-4,0.002 -10e-4,0.004 -0.004,0.004 0.003,0.005 0.0117,0.005 5.4e-4,-5.8e-4 8e-4,-10e-4 0.001,-0.002 -0.004,-0.005 -0.009,-0.011 -0.0109,-0.009 z m 3.20045,4.31364 c -0.002,0.002 -0.0212,0.0409 -0.0252,0.0533 0.0191,-0.0392 0.0262,-0.0545 0.0252,-0.0533 z m 1.23683,-0.89826 -5e-5,4.7e-4 c 6.2e-4,-5e-5 4.9e-4,-8.4e-4 0.002,-9.2e-4 3e-5,-7e-5 -2.4e-4,-5e-5 5e-5,-4.7e-4 3e-5,-2.4e-4 -0.001,4.6e-4 -0.002,9.2e-4 z m 0.10804,0.0853 c 9e-5,0 2.2e-4,8e-5 3.1e-4,8e-5 l 3.6e-4,-3.9e-4 c -2.2e-4,1.4e-4 -3.1e-4,3e-5 -6.7e-4,3.1e-4 z m 0.0449,0.1952 c 0.002,-6.8e-4 0.003,9.4e-4 0.007,-0.003 -2.1e-4,-3e-4 -1.9e-4,-0.001 -2e-4,-0.001 -0.002,0.002 -0.005,0.003 -0.007,0.004 z m -0.0229,2.11703 c -6.6e-4,10e-4 -0.001,0.003 -0.002,0.004 7e-4,-0.002 10e-4,-0.003 0.002,-0.004 z" /></clipPath></defs><sodipodi:namedview
   id="namedview114"
   pagecolor="#ffffff"
   bordercolor="#000000"
   borderopacity="0.25"
   inkscape:showpageshadow="2"
   inkscape:pageopacity="0.0"
   inkscape:pagecheckerboard="0"
   inkscape:deskcolor="#d1d1d1"
   showgrid="false"
   inkscape:zoom="1.2811382"
   inkscape:cx="374.27656"
   inkscape:cy="261.09595"
   inkscape:window-width="1848"
   inkscape:window-height="1016"
   inkscape:window-x="72"
   inkscape:window-y="27"
   inkscape:window-maximized="1"
   inkscape:current-layer="Capa_1" />

<g
   id="g83"
   style="fill:#ffffff;fill-opacity:1">
</g>
<g
   id="g85"
   style="fill:#ffffff;fill-opacity:1">
</g>
<g
   id="g87"
   style="fill:#ffffff;fill-opacity:1">
</g>
<g
   id="g89"
   style="fill:#ffffff;fill-opacity:1">
</g>
<g
   id="g91"
   style="fill:#ffffff;fill-opacity:1">
</g>
<g
   id="g93"
   style="fill:#ffffff;fill-opacity:1">
</g>
<g
   id="g95"
   style="fill:#ffffff;fill-opacity:1">
</g>
<g
   id="g97"
   style="fill:#ffffff;fill-opacity:1">
</g>
<g
   id="g99"
   style="fill:#ffffff;fill-opacity:1">
</g>
<g
   id="g101"
   style="fill:#ffffff;fill-opacity:1">
</g>
<g
   id="g103"
   style="fill:#ffffff;fill-opacity:1">
</g>
<g
   id="g105"
   style="fill:#ffffff;fill-opacity:1">
</g>
<g
   id="g107"
   style="fill:#ffffff;fill-opacity:1">
</g>
<g
   id="g109"
   style="fill:#ffffff;fill-opacity:1">
</g>
<g
   id="g111"
   style="fill:#ffffff;fill-opacity:1">
</g>
<g
   id="g917"
   transform="matrix(1.3393272,0,0,1.3582244,-4.2802637,-50.367637)"
   style="fill:#ffffff;fill-opacity:1;stroke-width:2.12871865;stroke-dasharray:none;paint-order:stroke markers fill"
   clip-path="url(#clipPath12832)"><g
     id="g866"
     style="fill:#ffffff;fill-opacity:1;stroke-width:2.12871865;stroke-dasharray:none;paint-order:stroke markers fill">
</g><g
     id="g868"
     style="fill:#ffffff;fill-opacity:1;stroke-width:2.12871865;stroke-dasharray:none;paint-order:stroke markers fill">
</g><g
     id="g870"
     style="fill:#ffffff;fill-opacity:1;stroke-width:2.12871865;stroke-dasharray:none;paint-order:stroke markers fill">
</g><g
     id="g872"
     style="fill:#ffffff;fill-opacity:1;stroke-width:2.12871865;stroke-dasharray:none;paint-order:stroke markers fill">
</g><g
     id="g874"
     style="fill:#ffffff;fill-opacity:1;stroke-width:2.12871865;stroke-dasharray:none;paint-order:stroke markers fill">
</g><g
     id="g876"
     style="fill:#ffffff;fill-opacity:1;stroke-width:2.12871865;stroke-dasharray:none;paint-order:stroke markers fill">
</g><g
     id="g878"
     style="fill:#ffffff;fill-opacity:1;stroke-width:2.12871865;stroke-dasharray:none;paint-order:stroke markers fill">
</g><g
     id="g880"
     style="fill:#ffffff;fill-opacity:1;stroke-width:2.12871865;stroke-dasharray:none;paint-order:stroke markers fill">
</g><g
     id="g882"
     style="fill:#ffffff;fill-opacity:1;stroke-width:2.12871865;stroke-dasharray:none;paint-order:stroke markers fill">
</g><g
     id="g884"
     style="fill:#ffffff;fill-opacity:1;stroke-width:2.12871865;stroke-dasharray:none;paint-order:stroke markers fill">
</g><g
     id="g886"
     style="fill:#ffffff;fill-opacity:1;stroke-width:2.12871865;stroke-dasharray:none;paint-order:stroke markers fill">
</g><g
     id="g888"
     style="fill:#ffffff;fill-opacity:1;stroke-width:2.12871865;stroke-dasharray:none;paint-order:stroke markers fill">
</g><g
     id="g890"
     style="fill:#ffffff;fill-opacity:1;stroke-width:2.12871865;stroke-dasharray:none;paint-order:stroke markers fill">
</g><g
     id="g892"
     style="fill:#ffffff;fill-opacity:1;stroke-width:2.12871865;stroke-dasharray:none;paint-order:stroke markers fill">
</g><g
     id="g894"
     style="fill:#ffffff;fill-opacity:1;stroke-width:2.12871865;stroke-dasharray:none;paint-order:stroke markers fill">
</g></g><path
   id="path30364"
   style="opacity:1;fill:#ffffff;fill-opacity:1;stroke:#000000;stroke-width:0;stroke-linecap:square;stroke-miterlimit:0;paint-order:stroke fill markers"
   inkscape:transform-center-x="-0.24397501"
   inkscape:transform-center-y="0.26327992"
   d="m 43.884449,11.464482 c -0.158013,0.0017 -0.313087,0.07466 -0.413841,0.211033 l -1.609383,2.178555 c -0.169693,0.229684 -0.119164,0.549674 0.113274,0.717399 l 4.558609,3.289608 c 0.23244,0.167732 0.55612,0.117718 0.725811,-0.111965 l 1.609569,-2.178554 c 0.169688,-0.229685 0.119168,-0.549485 -0.113273,-0.717213 l -4.558609,-3.289608 c -0.09443,-0.06814 -0.204043,-0.100407 -0.312157,-0.09925 z m -3.58139,4.622162 -18.268643,24.907112 5.39489,3.899716 18.237801,-24.865242 z m -19.435959,26.36023 -0.374962,3.361011 -0.374962,3.361012 3.157269,-1.362461 3.157455,-1.362648 -2.782494,-1.998364 z" /><g
   id="g81"
   style="fill:#ffffff;fill-opacity:1;stroke:#474747;stroke-width:0;stroke-dasharray:none;stroke-opacity:1"
   transform="matrix(0.85734048,0,0,0.84765623,0.07128331,4.2382812e-7)">
	<path
   d="M 39.914,0 H 37.5 9.5 0.5 v 49 h 7 33 8 V 8.586 Z M 35.5,2 v 14 h -24 V 2 Z M 9.5,47 V 28 h 29 v 19 z m 37,0 h -6 V 26 h -33 v 21 h -5 V 2 h 7 v 16 h 28 V 2 h 1.586 L 46.5,9.414 Z"
   fill="#FFFFFF"
   id="path71"
   style="fill:#ffffff;fill-opacity:1;stroke:#474747;stroke-width:0;stroke-dasharray:none;stroke-opacity:1" />
	<path
   d="m 13.5,33 h 7 c 0.553,0 1,-0.447 1,-1 0,-0.553 -0.447,-1 -1,-1 h -7 c -0.553,0 -1,0.447 -1,1 0,0.553 0.447,1 1,1 z"
   fill="#FFFFFF"
   id="path73"
   style="fill:#ffffff;fill-opacity:1;stroke:#474747;stroke-width:0;stroke-dasharray:none;stroke-opacity:1" />
	<path
   d="m 23.5,35 h -10 c -0.553,0 -1,0.447 -1,1 0,0.553 0.447,1 1,1 h 10 c 0.553,0 1,-0.447 1,-1 0,-0.553 -0.447,-1 -1,-1 z"
   fill="#FFFFFF"
   id="path75"
   style="fill:#ffffff;fill-opacity:1;stroke:#474747;stroke-width:0;stroke-dasharray:none;stroke-opacity:1" />
	<path
   d="m 25.79,35.29 c -0.181,0.189 -0.29,0.45 -0.29,0.71 0,0.26 0.109,0.52 0.29,0.71 0.189,0.18 0.439,0.29 0.71,0.29 0.26,0 0.52,-0.11 0.71,-0.29 0.18,-0.19 0.29,-0.45 0.29,-0.71 0,-0.26 -0.11,-0.521 -0.29,-0.71 -0.37,-0.37 -1.05,-0.37 -1.42,0 z"
   fill="#FFFFFF"
   id="path77"
   style="fill:#ffffff;fill-opacity:1;stroke:#474747;stroke-width:0;stroke-dasharray:none;stroke-opacity:1" />
	<path
   d="m 33.5,4 h -6 v 10 h 6 z m -2,8 h -2 V 6 h 2 z"
   fill="#FFFFFF"
   id="path79"
   style="fill:#ffffff;fill-opacity:1;stroke:#474747;stroke-width:0;stroke-dasharray:none;stroke-opacity:1" />
</g></svg>
