<?xml version="1.0" encoding="UTF-8" standalone="no"?>
<!-- Generator: Adobe Illustrator 19.0.0, SVG Export Plug-In . SVG Version: 6.00 Build 0)  -->

<svg
   version="1.1"
   id="Capa_1"
   x="0px"
   y="0px"
   viewBox="0 0 49 49"
   style="enable-background:new 0 0 49 49;"
   xml:space="preserve"
   width="512px"
   height="512px"
   sodipodi:docname="saved_white.svg"
   inkscape:version="1.2 (1:1.2.1+202207142221+cd75a1ee6d)"
   xmlns:inkscape="http://www.inkscape.org/namespaces/inkscape"
   xmlns:sodipodi="http://sodipodi.sourceforge.net/DTD/sodipodi-0.dtd"
   xmlns="http://www.w3.org/2000/svg"
   xmlns:svg="http://www.w3.org/2000/svg"><defs
   id="defs116" /><sodipodi:namedview
   id="namedview114"
   pagecolor="#ffffff"
   bordercolor="#000000"
   borderopacity="0.25"
   inkscape:showpageshadow="2"
   inkscape:pageopacity="0.0"
   inkscape:pagecheckerboard="0"
   inkscape:deskcolor="#d1d1d1"
   showgrid="false"
   inkscape:zoom="1.6501544"
   inkscape:cx="140.2899"
   inkscape:cy="187.5582"
   inkscape:window-width="1848"
   inkscape:window-height="1016"
   inkscape:window-x="72"
   inkscape:window-y="27"
   inkscape:window-maximized="1"
   inkscape:current-layer="Capa_1" />
<g
   id="g81"
   style="fill:#ffffff;fill-opacity:1;stroke:#474747;stroke-width:0;stroke-dasharray:none;stroke-opacity:1"
   transform="matrix(0.85734048,0,0,0.84765623,0.07132969,-7.3753597e-8)">
	<path
   d="M 39.914,0 H 37.5 9.5 0.5 v 49 h 7 33 8 V 8.586 Z M 35.5,2 v 14 h -24 V 2 Z M 9.5,47 V 28 h 29 v 19 z m 37,0 h -6 V 26 h -33 v 21 h -5 V 2 h 7 v 16 h 28 V 2 h 1.586 L 46.5,9.414 Z"
   fill="#FFFFFF"
   id="path71"
   style="fill:#ffffff;fill-opacity:1;stroke:#474747;stroke-width:0;stroke-dasharray:none;stroke-opacity:1" />
	<path
   d="m 13.5,33 h 7 c 0.553,0 1,-0.447 1,-1 0,-0.553 -0.447,-1 -1,-1 h -7 c -0.553,0 -1,0.447 -1,1 0,0.553 0.447,1 1,1 z"
   fill="#FFFFFF"
   id="path73"
   style="fill:#ffffff;fill-opacity:1;stroke:#474747;stroke-width:0;stroke-dasharray:none;stroke-opacity:1" />
	<path
   d="m 23.5,35 h -10 c -0.553,0 -1,0.447 -1,1 0,0.553 0.447,1 1,1 h 10 c 0.553,0 1,-0.447 1,-1 0,-0.553 -0.447,-1 -1,-1 z"
   fill="#FFFFFF"
   id="path75"
   style="fill:#ffffff;fill-opacity:1;stroke:#474747;stroke-width:0;stroke-dasharray:none;stroke-opacity:1" />
	<path
   d="m 25.79,35.29 c -0.181,0.189 -0.29,0.45 -0.29,0.71 0,0.26 0.109,0.52 0.29,0.71 0.189,0.18 0.439,0.29 0.71,0.29 0.26,0 0.52,-0.11 0.71,-0.29 0.18,-0.19 0.29,-0.45 0.29,-0.71 0,-0.26 -0.11,-0.521 -0.29,-0.71 -0.37,-0.37 -1.05,-0.37 -1.42,0 z"
   fill="#FFFFFF"
   id="path77"
   style="fill:#ffffff;fill-opacity:1;stroke:#474747;stroke-width:0;stroke-dasharray:none;stroke-opacity:1" />
	<path
   d="m 33.5,4 h -6 v 10 h 6 z m -2,8 h -2 V 6 h 2 z"
   fill="#FFFFFF"
   id="path79"
   style="fill:#ffffff;fill-opacity:1;stroke:#474747;stroke-width:0;stroke-dasharray:none;stroke-opacity:1" />
</g>
<g
   id="g83"
   style="fill:#ffffff;fill-opacity:1">
</g>
<g
   id="g85"
   style="fill:#ffffff;fill-opacity:1">
</g>
<g
   id="g87"
   style="fill:#ffffff;fill-opacity:1">
</g>
<g
   id="g89"
   style="fill:#ffffff;fill-opacity:1">
</g>
<g
   id="g91"
   style="fill:#ffffff;fill-opacity:1">
</g>
<g
   id="g93"
   style="fill:#ffffff;fill-opacity:1">
</g>
<g
   id="g95"
   style="fill:#ffffff;fill-opacity:1">
</g>
<g
   id="g97"
   style="fill:#ffffff;fill-opacity:1">
</g>
<g
   id="g99"
   style="fill:#ffffff;fill-opacity:1">
</g>
<g
   id="g101"
   style="fill:#ffffff;fill-opacity:1">
</g>
<g
   id="g103"
   style="fill:#ffffff;fill-opacity:1">
</g>
<g
   id="g105"
   style="fill:#ffffff;fill-opacity:1">
</g>
<g
   id="g107"
   style="fill:#ffffff;fill-opacity:1">
</g>
<g
   id="g109"
   style="fill:#ffffff;fill-opacity:1">
</g>
<g
   id="g111"
   style="fill:#ffffff;fill-opacity:1">
</g>
<path
   id="rect952-3"
   style="fill:#ffffff;fill-opacity:1;stroke:#474747;stroke-width:0;stroke-linecap:square;stroke-miterlimit:0;stroke-opacity:1;paint-order:stroke fill markers"
   d="M 23.820488,44.978315 45.690014,28.078596 48.595326,31.614343 26.7258,48.514062 Z m -0.827915,-8.609735 7.511208,9.131597 -3.860797,2.98651 -7.511215,-9.131591 z" /></svg>
