<?xml version="1.0" encoding="UTF-8" standalone="no"?>
<!-- Generator: Adobe Illustrator 19.0.0, SVG Export Plug-In . SVG Version: 6.00 Build 0)  -->

<svg
   version="1.1"
   id="Capa_1"
   x="0px"
   y="0px"
   viewBox="0 0 49 49"
   style="enable-background:new 0 0 49 49;"
   xml:space="preserve"
   width="512px"
   height="512px"
   sodipodi:docname="unsaved_white.svg"
   inkscape:version="1.2 (1:1.2.1+202207142221+cd75a1ee6d)"
   xmlns:inkscape="http://www.inkscape.org/namespaces/inkscape"
   xmlns:sodipodi="http://sodipodi.sourceforge.net/DTD/sodipodi-0.dtd"
   xmlns="http://www.w3.org/2000/svg"
   xmlns:svg="http://www.w3.org/2000/svg"><defs
   id="defs116" /><sodipodi:namedview
   id="namedview114"
   pagecolor="#ffffff"
   bordercolor="#000000"
   borderopacity="0.25"
   inkscape:showpageshadow="2"
   inkscape:pageopacity="0.0"
   inkscape:pagecheckerboard="0"
   inkscape:deskcolor="#d1d1d1"
   showgrid="false"
   inkscape:zoom="1.0764838"
   inkscape:cx="215.98096"
   inkscape:cy="298.65754"
   inkscape:window-width="1848"
   inkscape:window-height="1016"
   inkscape:window-x="72"
   inkscape:window-y="27"
   inkscape:window-maximized="1"
   inkscape:current-layer="Capa_1" />
<g
   id="g81"
   style="fill:#ffffff;fill-opacity:1;stroke:#474747;stroke-width:0;stroke-dasharray:none;stroke-opacity:1"
   transform="matrix(0.85734044,0,0,0.84765623,0.07132764,5.5343487e-7)">
	<path
   d="M 39.914,0 H 37.5 9.5 0.5 v 49 h 7 33 8 V 8.586 Z M 35.5,2 v 14 h -24 V 2 Z M 9.5,47 V 28 h 29 v 19 z m 37,0 h -6 V 26 h -33 v 21 h -5 V 2 h 7 v 16 h 28 V 2 h 1.586 L 46.5,9.414 Z"
   fill="#FFFFFF"
   id="path71"
   style="fill:#ffffff;fill-opacity:1;stroke:#474747;stroke-width:0;stroke-dasharray:none;stroke-opacity:1" />
	<path
   d="m 13.5,33 h 7 c 0.553,0 1,-0.447 1,-1 0,-0.553 -0.447,-1 -1,-1 h -7 c -0.553,0 -1,0.447 -1,1 0,0.553 0.447,1 1,1 z"
   fill="#FFFFFF"
   id="path73"
   style="fill:#ffffff;fill-opacity:1;stroke:#474747;stroke-width:0;stroke-dasharray:none;stroke-opacity:1" />
	<path
   d="m 23.5,35 h -10 c -0.553,0 -1,0.447 -1,1 0,0.553 0.447,1 1,1 h 10 c 0.553,0 1,-0.447 1,-1 0,-0.553 -0.447,-1 -1,-1 z"
   fill="#FFFFFF"
   id="path75"
   style="fill:#ffffff;fill-opacity:1;stroke:#474747;stroke-width:0;stroke-dasharray:none;stroke-opacity:1" />
	<path
   d="m 25.79,35.29 c -0.181,0.189 -0.29,0.45 -0.29,0.71 0,0.26 0.109,0.52 0.29,0.71 0.189,0.18 0.439,0.29 0.71,0.29 0.26,0 0.52,-0.11 0.71,-0.29 0.18,-0.19 0.29,-0.45 0.29,-0.71 0,-0.26 -0.11,-0.521 -0.29,-0.71 -0.37,-0.37 -1.05,-0.37 -1.42,0 z"
   fill="#FFFFFF"
   id="path77"
   style="fill:#ffffff;fill-opacity:1;stroke:#474747;stroke-width:0;stroke-dasharray:none;stroke-opacity:1" />
	<path
   d="m 33.5,4 h -6 v 10 h 6 z m -2,8 h -2 V 6 h 2 z"
   fill="#FFFFFF"
   id="path79"
   style="fill:#ffffff;fill-opacity:1;stroke:#474747;stroke-width:0;stroke-dasharray:none;stroke-opacity:1" />
</g>
<g
   id="g83">
</g>
<g
   id="g85">
</g>
<g
   id="g87">
</g>
<g
   id="g89">
</g>
<g
   id="g91">
</g>
<g
   id="g93">
</g>
<g
   id="g95">
</g>
<g
   id="g97">
</g>
<g
   id="g99">
</g>
<g
   id="g101">
</g>
<g
   id="g103">
</g>
<g
   id="g105">
</g>
<g
   id="g107">
</g>
<g
   id="g109">
</g>
<g
   id="g111">
</g>
<path
   id="rect3470-6-3"
   style="stroke:#474747;stroke-width:0;stroke-linecap:square;stroke-miterlimit:0;paint-order:stroke fill markers;fill:#ffffff;fill-opacity:1"
   d="m 27.827205,36.478692 2.445982,-4.111742 16.886037,9.461911 -2.445986,4.111742 z m 16.97658,-4.221497 2.445982,4.111741 -16.886035,9.461912 -2.445978,-4.111741 z m -9.82687,-2.734943 4.891962,3e-6 v 18.923818 l -4.891962,-2e-6 z" /></svg>
